<?xml version="1.0" standalone="no"?>
<!DOCTYPE svg PUBLIC "-//W3C//DTD SVG 20010904//EN"
 "http://www.w3.org/TR/2001/REC-SVG-20010904/DTD/svg10.dtd">
<svg version="1.0" xmlns="http://www.w3.org/2000/svg"
 width="500.000000pt" height="500.000000pt" viewBox="0 0 500.000000 500.000000"
 preserveAspectRatio="xMidYMid meet">
<metadata>
Created by potrace 1.11, written by Peter Selinger 2001-2013
</metadata>
<g transform="translate(0.000000,500.000000) scale(0.100000,-0.100000)"
fill="#000000" stroke="none">
<path d="M2155 4986 c-217 -27 -433 -95 -599 -189 -89 -51 -128 -81 -212 -165
-118 -118 -170 -148 -239 -138 -36 6 -43 4 -47 -12 -3 -10 5 -40 18 -67 13
-27 22 -51 19 -53 -13 -13 -146 -12 -205 1 -115 27 -104 -6 45 -133 52 -45 95
-84 95 -86 0 -3 -9 -23 -21 -45 -64 -127 -135 -370 -165 -565 l-16 -112 -82
-24 -81 -25 2 -58 c1 -31 4 -59 6 -61 2 -2 19 0 38 5 19 5 49 12 67 15 l34 6
-6 -218 c-4 -190 -8 -224 -27 -272 -55 -142 -79 -346 -59 -510 41 -354 206
-676 495 -965 185 -185 360 -301 565 -375 36 -13 67 -25 69 -26 2 -2 -16 -25
-40 -52 -35 -42 -45 -48 -60 -39 -14 9 -52 -9 -211 -100 -106 -61 -208 -118
-225 -127 -31 -15 -33 -20 -33 -67 0 -43 -3 -51 -23 -58 -15 -6 -43 -43 -76
-100 -29 -50 -58 -91 -65 -91 -20 0 -103 -85 -125 -129 -26 -51 -27 -85 -1
-111 11 -11 20 -24 20 -30 0 -7 204 -10 591 -10 l591 0 -4 34 c-2 19 0 32 4
30 4 -3 8 -18 8 -35 0 -28 2 -29 44 -29 l44 0 0 175 c1 96 4 184 7 195 4 11 2
20 -4 20 -6 0 -11 13 -11 29 0 27 3 29 52 35 78 11 223 60 319 109 65 34 102
46 155 51 79 8 188 42 277 87 38 20 56 25 48 15 -11 -13 -3 -12 35 6 94 41
187 103 228 152 92 111 135 152 145 137 19 -30 44 -235 49 -401 3 -136 -1
-217 -17 -365 -12 -104 -24 -202 -27 -218 l-6 -27 731 0 731 0 0 564 0 564
-97 84 c-157 135 -165 140 -176 129 -13 -13 -47 -14 -47 -2 0 5 -9 11 -20 14
-10 3 -27 21 -36 40 l-16 34 -107 6 c-175 9 -366 61 -665 178 -134 53 -151 58
-166 44 -21 -19 -74 -20 -89 -1 -9 10 -1 32 35 97 96 174 200 435 292 738 4
16 16 25 32 27 69 10 91 17 128 44 112 81 183 300 152 469 -30 165 -127 252
-234 211 -29 -11 -28 -15 -46 110 -30 195 -84 398 -152 570 -74 187 -271 535
-394 696 -66 87 -195 212 -255 247 -66 39 -244 95 -356 113 -137 21 -488 27
-628 10z m685 -616 c277 -29 465 -133 620 -342 54 -73 74 -112 135 -271 31
-80 29 -106 -4 -54 -12 20 -25 37 -27 37 -11 0 0 -21 35 -69 37 -49 45 -75 57
-176 12 -112 15 -168 17 -313 2 -128 -1 -162 -11 -162 -8 0 -10 -5 -5 -12 24
-39 17 -407 -8 -416 -5 -2 -6 -15 -3 -28 7 -27 -35 -224 -48 -224 -4 0 -8 -12
-8 -28 0 -34 -49 -164 -97 -255 -30 -56 -38 -66 -44 -51 -6 15 -8 12 -8 -12
-2 -63 -162 -240 -293 -325 -38 -24 -68 -50 -68 -57 0 -8 6 -12 14 -9 11 4 23
-30 51 -146 39 -157 41 -164 50 -155 5 5 -55 260 -70 300 -5 13 3 19 58 46 4
2 7 -5 7 -15 0 -24 58 -209 76 -245 13 -26 12 -28 -63 -97 -41 -40 -77 -70
-79 -68 -3 3 -81 266 -106 357 -9 33 -13 39 -16 23 -2 -12 16 -86 39 -165 64
-219 65 -226 46 -245 -9 -9 -18 -15 -21 -12 -7 7 -94 301 -107 362 -13 59 -33
81 -23 25 9 -48 41 -170 74 -273 15 -49 31 -100 34 -112 6 -18 1 -25 -23 -37
-17 -9 -32 -16 -34 -16 -3 0 -7 17 -10 38 -10 60 -126 445 -138 457 -16 14 -5
-34 43 -189 37 -123 88 -305 88 -317 0 -6 -51 -32 -55 -27 -6 10 -89 303 -114
403 -16 66 -34 131 -39 145 -39 94 35 -227 107 -463 l29 -97 -26 -14 -27 -14
-33 121 c-18 67 -54 205 -80 306 -26 102 -48 174 -50 160 -3 -23 46 -222 113
-464 32 -117 32 -131 -4 -143 l-28 -10 -51 182 c-28 99 -58 215 -68 256 -43
193 -73 289 -58 190 12 -88 55 -268 106 -448 55 -195 55 -201 2 -202 -17 0
-23 8 -29 38 -13 72 -128 537 -136 552 -18 32 -8 -24 42 -227 80 -327 89 -374
76 -378 -48 -16 -50 -14 -74 90 -78 340 -109 459 -121 473 -16 20 -23 53 63
-311 l62 -267 -26 -6 c-56 -11 -61 -12 -61 -6 0 21 -109 544 -114 549 -14 15
-3 -61 44 -297 28 -138 50 -252 50 -254 0 -2 -9 -6 -20 -9 -22 -6 -19 -12 -63
163 -13 52 -32 138 -42 190 -9 52 -21 109 -25 125 l-8 30 -1 -30 c-1 -39 30
-200 68 -350 17 -66 31 -123 31 -127 0 -5 -31 -8 -70 -8 l-69 0 -10 38 c-16
57 -39 184 -56 306 -8 60 -17 112 -20 114 -18 18 16 -244 51 -397 8 -35 13
-65 11 -67 -2 -2 -17 -1 -34 2 l-30 6 -17 116 c-9 65 -23 167 -30 227 -12 99
-14 104 -15 48 -1 -56 30 -308 45 -370 6 -21 3 -23 -30 -23 -20 0 -36 4 -36 9
0 6 -9 70 -19 143 -11 73 -22 168 -26 210 -4 43 -11 78 -17 78 -6 0 -8 -18 -4
-47 26 -220 39 -314 45 -350 9 -46 0 -55 -31 -30 -17 13 -39 144 -58 341 -5
60 -12 112 -15 114 -17 17 8 -272 35 -402 6 -27 9 -50 7 -52 -1 -2 -12 -1 -24
2 -17 5 -22 16 -27 67 -22 210 -45 379 -51 385 -9 8 -2 -70 24 -291 l17 -148
-25 3 c-23 3 -26 9 -38 78 -6 41 -15 141 -19 223 -4 81 -11 147 -16 147 -13 0
-9 -165 7 -275 20 -138 19 -155 -4 -155 -11 0 -23 4 -26 10 -8 13 -45 322 -46
385 -1 70 -17 107 -18 40 -1 -51 22 -294 35 -374 7 -42 6 -43 -17 -36 -13 4
-27 10 -31 14 -5 4 -15 67 -23 141 -8 74 -19 169 -23 210 l-9 75 -2 -87 c0
-48 6 -140 14 -204 9 -64 14 -118 12 -121 -2 -2 -11 -1 -19 2 -20 8 -38 117
-45 280 -3 72 -9 137 -14 145 -11 20 -11 -156 0 -240 25 -185 25 -176 8 -160
-12 12 -18 59 -28 208 -7 106 -17 192 -22 192 -9 0 -7 -78 10 -298 4 -55 2
-82 -5 -82 -17 0 -24 52 -37 255 -10 165 -12 183 -19 133 -5 -33 -3 -120 3
-204 6 -81 9 -149 7 -151 -2 -3 -13 0 -24 6 -17 9 -21 25 -26 118 -11 195 -18
253 -27 253 -9 0 -6 -134 6 -283 4 -53 3 -57 -14 -48 -15 8 -19 28 -24 123 -4
62 -7 147 -8 188 0 62 -2 71 -11 50 -6 -16 -8 -80 -4 -179 l7 -154 -23 15
c-22 15 -23 22 -26 169 -2 86 -8 158 -14 164 -7 7 -9 -41 -6 -146 l3 -156 -22
16 c-18 13 -22 26 -23 72 0 105 -13 238 -22 233 -5 -3 -6 -63 -2 -136 l7 -130
-21 13 c-21 13 -22 21 -22 161 0 92 -4 148 -10 148 -6 0 -10 -50 -10 -130 0
-71 -4 -130 -9 -130 -27 0 -34 33 -27 135 4 60 3 105 -2 105 -10 0 -22 -80
-22 -149 l0 -44 -21 19 c-21 18 -21 25 -15 159 7 165 -8 167 -19 3 -5 -73 -11
-106 -17 -100 -7 7 -7 49 -1 122 4 61 5 114 2 116 -9 5 -16 -32 -24 -129 -7
-75 -8 -78 -22 -57 -12 17 -14 37 -10 89 4 36 9 76 13 89 4 12 2 22 -4 22 -9
0 -13 -13 -27 -108 -4 -25 -11 -40 -17 -36 -7 5 -8 42 -4 110 9 126 -8 143
-20 22 l-9 -82 -19 29 c-17 26 -18 37 -9 104 10 78 1 124 -11 54 -4 -21 -9
-51 -13 -67 l-5 -30 -14 26 c-10 20 -11 39 -4 84 12 74 12 94 1 94 -5 0 -12
-28 -16 -61 -11 -91 -27 -52 -20 46 4 57 3 76 -4 65 -6 -8 -11 -32 -11 -52 0
-21 -4 -38 -9 -38 -17 0 -20 47 -6 100 17 64 19 104 5 95 -5 -3 -10 -14 -10
-23 0 -9 -5 -35 -11 -57 l-12 -40 -9 28 c-7 20 -5 40 6 74 18 52 22 114 5 78
-5 -11 -14 -33 -20 -50 l-12 -30 -8 29 c-5 17 -4 48 1 70 6 26 5 45 -1 51 -6
5 -9 2 -10 -10 0 -17 -2 -16 -12 5 -6 14 -11 82 -11 160 -1 153 15 238 71 388
31 83 33 96 20 115 -11 18 -12 56 -6 205 3 101 9 185 12 189 3 3 77 16 164 28
87 13 174 27 193 32 l35 9 -3 70 c-2 38 -8 73 -13 79 -11 11 -139 -6 -271 -39
-64 -15 -98 -19 -98 -12 0 27 33 200 56 289 28 112 59 199 111 309 l35 76 62
-33 c114 -63 248 -79 406 -49 111 21 220 58 430 147 281 120 445 167 645 186
115 12 130 12 235 1z m1289 -1197 c44 -33 64 -79 69 -158 5 -86 -19 -216 -53
-290 -34 -72 -102 -135 -162 -150 -26 -7 -51 -11 -54 -9 -3 2 0 34 7 71 7 37
19 147 25 243 13 190 20 210 70 210 30 0 69 -33 69 -59 0 -8 3 -11 7 -7 4 4
-1 22 -12 42 -22 42 -58 53 -96 31 -34 -19 -39 -14 -39 34 0 31 5 41 28 54 35
20 106 14 141 -12z m-634 -1232 c-8 -60 -20 -73 -29 -30 -3 19 0 42 10 61 21
40 27 30 19 -31z m-45 -139 c-12 -25 -13 -26 -21 -7 -12 30 -10 84 3 108 11
20 13 18 21 -26 7 -35 6 -56 -3 -75z m-35 -2 c5 -31 2 -47 -11 -68 l-18 -27
-13 55 c-10 47 -10 57 4 72 21 23 30 16 38 -32z m-53 -118 c-7 -19 -19 -3 -31
42 -8 30 -7 43 2 54 10 13 14 7 23 -34 6 -27 9 -55 6 -62z m-32 -32 c-1 -17
-38 -65 -45 -58 -3 3 -10 30 -16 61 -11 54 -11 57 12 76 l24 19 12 -41 c7 -23
13 -49 13 -57z m-70 -31 c7 -31 10 -62 6 -68 -4 -6 -3 -11 2 -11 6 0 18 -29
27 -65 15 -54 16 -67 4 -81 -11 -14 -16 -8 -37 52 -12 38 -32 102 -43 142 -20
71 -20 74 -2 87 23 17 27 12 43 -56z m240 54 c0 -5 -9 -19 -20 -33 -18 -23
-20 -24 -20 -4 0 20 17 44 32 44 4 0 8 -3 8 -7z m-50 -53 c0 -6 -8 -27 -17
-48 l-17 -37 -4 33 c-3 32 11 62 29 62 5 0 9 -5 9 -10z m-61 -82 c-1 -37 -2
-39 -9 -18 -12 36 -12 60 0 60 6 0 10 -19 9 -42z m-27 -30 c1 -25 -4 -44 -17
-59 l-20 -21 -12 38 c-17 57 -15 70 10 81 28 14 35 6 39 -39z m152 -68 c-4
-184 -90 -334 -277 -485 -92 -75 -265 -164 -367 -191 -138 -36 -320 -11 -328
45 -3 19 -6 21 -13 10 -8 -11 -14 -9 -34 14 -14 15 -25 32 -25 37 0 5 21 12
48 16 69 10 226 58 321 98 230 97 444 268 592 472 74 101 85 99 83 -16z m6
-268 c0 -91 -238 -315 -447 -421 -68 -34 -204 -81 -235 -81 -38 0 40 52 121
80 203 70 384 208 493 376 40 63 68 82 68 46z m-1343 -929 c-3 -10 -5 -2 -5
17 0 19 2 27 5 18 2 -10 2 -26 0 -35z m17 -111 c4 -29 3 -41 -4 -37 -5 3 -10
25 -10 47 0 51 5 47 14 -10z"/>
<path d="M2406 3642 c-33 -6 -41 -12 -48 -37 -4 -17 -4 -52 2 -80 l11 -51 157
-23 c213 -30 334 -56 439 -91 48 -17 89 -30 91 -30 2 0 1 28 -3 62 -7 60 -22
98 -37 98 -4 0 -29 14 -55 30 -61 39 -184 86 -271 105 -83 17 -232 26 -286 17z"/>
<path d="M2599 3068 c-16 -26 -19 -44 -16 -89 l5 -55 -73 -13 c-72 -12 -117
-32 -98 -44 5 -3 34 1 64 9 83 23 244 29 302 11 39 -13 47 -13 47 -1 0 16 -89
44 -141 44 l-37 0 19 37 c21 42 24 70 9 107 -14 39 -55 35 -81 -6z"/>
<path d="M1081 2964 c-15 -19 -21 -41 -21 -75 l0 -49 -37 0 c-65 0 -113 -12
-113 -27 0 -11 10 -13 48 -7 71 11 243 8 275 -4 22 -9 27 -9 27 2 0 17 -51 36
-96 36 -39 0 -39 -1 -19 36 41 79 -13 153 -64 88z"/>
<path d="M1600 2732 c-100 -50 -116 -191 -31 -285 50 -56 104 -80 176 -80 66
0 114 19 198 80 74 54 59 76 -16 24 -127 -86 -226 -97 -320 -35 -101 67 -104
204 -5 264 18 11 43 20 56 20 13 0 22 6 22 15 0 20 -37 19 -80 -3z"/>
<path d="M2410 2528 c0 -9 21 -44 46 -79 57 -78 53 -73 59 -68 2 3 -20 41 -50
84 -30 43 -55 72 -55 63z"/>
<path d="M2490 2515 c0 -8 75 -74 79 -69 6 5 -60 74 -71 74 -4 0 -8 -2 -8 -5z"/>
<path d="M2344 2443 c25 -50 55 -93 56 -81 0 8 -71 128 -76 128 -3 0 7 -21 20
-47z"/>
<path d="M2606 2453 c-3 -4 5 -19 19 -33 l26 -27 -72 -67 c-206 -190 -516
-336 -722 -340 -114 -1 -112 -18 8 -57 126 -40 226 -53 369 -46 186 8 335 64
399 148 51 69 72 198 48 302 -5 20 -7 37 -5 37 3 0 18 -10 34 -22 43 -31 51
-12 10 23 -86 73 -108 88 -114 82z m70 -174 c17 -177 -99 -309 -311 -354 -129
-27 -409 -13 -473 24 -14 9 -13 10 11 11 93 1 307 81 460 173 89 54 232 162
271 206 26 29 35 16 42 -60z"/>
<path d="M2230 2445 c0 -5 12 -23 26 -42 14 -18 36 -57 50 -86 22 -46 24 -48
19 -18 -3 19 -19 56 -36 82 -30 47 -59 78 -59 64z"/>
<path d="M2078 2343 c22 -43 47 -102 56 -130 10 -29 22 -53 26 -53 20 0 -84
239 -110 255 -6 4 6 -28 28 -72z"/>
<path d="M2176 2338 c18 -46 34 -91 34 -100 0 -9 5 -20 11 -24 9 -5 10 1 5 22
-13 50 -68 184 -77 184 -4 0 8 -37 27 -82z"/>
<path d="M1613 2338 c-30 -38 -129 -276 -118 -286 7 -8 10 -4 40 78 15 41 43
106 62 144 32 64 39 93 16 64z"/>
<path d="M1994 2334 c8 -19 45 -136 65 -204 10 -34 10 -33 4 10 -7 60 -51 197
-65 206 -8 5 -9 1 -4 -12z"/>
<path d="M1440 2283 c-59 -66 -126 -174 -135 -218 -4 -18 10 0 36 48 23 42 70
108 105 146 35 38 64 72 64 75 0 17 -24 0 -70 -51z"/>
<path d="M1512 2283 c-61 -91 -124 -204 -118 -210 7 -8 3 -14 61 87 27 46 64
103 82 127 35 46 38 53 23 53 -5 0 -27 -26 -48 -57z"/>
<path d="M1673 2320 c-30 -75 -83 -243 -78 -248 3 -3 6 -3 8 -1 12 14 88 252
84 262 -3 7 -9 1 -14 -13z"/>
<path d="M1730 2298 c-6 -24 -22 -83 -36 -132 -13 -49 -22 -91 -20 -94 7 -7
24 38 51 140 13 47 26 96 30 107 4 12 2 21 -4 21 -6 0 -15 -19 -21 -42z"/>
<path d="M1913 2325 c3 -11 15 -63 27 -115 27 -116 29 -124 36 -117 7 7 -46
230 -58 242 -7 7 -9 3 -5 -10z"/>
<path d="M1796 2253 c-4 -43 -9 -103 -12 -133 -4 -36 -2 -52 4 -45 12 12 31
245 21 251 -4 2 -10 -31 -13 -73z"/>
<path d="M1855 2263 c7 -38 18 -81 24 -96 6 -16 11 -44 11 -63 0 -19 5 -34 11
-34 7 0 9 10 7 23 -33 150 -54 237 -59 237 -4 0 -1 -30 6 -67z"/>
<path d="M2027 1680 c-82 -14 -247 -102 -247 -131 0 -16 17 -10 64 22 111 74
243 104 337 75 30 -10 60 -20 67 -22 6 -3 12 1 12 9 0 34 -142 63 -233 47z"/>
<path d="M2511 1624 c0 -11 3 -14 6 -6 3 7 2 16 -1 19 -3 4 -6 -2 -5 -13z"/>
<path d="M2251 1410 c-2 -93 59 -443 80 -455 13 -8 12 2 -10 97 -11 46 -27
139 -36 208 -9 69 -20 141 -25 160 l-8 35 -1 -45z"/>
<path d="M4112 2985 c0 -16 2 -22 5 -12 2 9 2 23 0 30 -3 6 -5 -1 -5 -18z"/>
<path d="M4112 2888 c-6 -29 -14 -64 -17 -78 -5 -21 -5 -22 5 -8 12 19 34 127
27 134 -2 3 -9 -19 -15 -48z"/>
</g>
</svg>
